<?xml version="1.0" encoding="UTF-8"?>
<svg id="Livello_1" data-name="Livello 1" xmlns="http://www.w3.org/2000/svg" viewBox="0 0 22.18 8.7">
  <defs>
    <style>
      .cls-1 {
        fill-rule: evenodd;
      }
    </style>
  </defs>
  <path class="cls-1" d="m18.53,8.7v-4.17h-2.44v4.17h2.44Zm0-4.52h-2.44V0h2.44v4.17h0Zm3.13.35c.32.46.52,1,.52,1.56,0,1.44-1.17,2.61-2.61,2.61h-.7v-4.17h2.79Zm-2.79-.35h2.47c-.22-.2-.52-.4-.82-.51.6-.35,1-1,1-1.71,0-1.07-.89-1.96-1.96-1.96h-.7v4.17h0Zm-7.14,4.52h-2.43v-4.17h2.43v4.17h0Zm0-4.52h-2.43V0h2.43v4.17h0Zm.35,4.52v-4.17h2.79c.32.46.52,1.01.52,1.57,0,1.44-1.17,2.61-2.61,2.61h-.7Zm0-4.52V0h.7c1.07,0,1.96.89,1.96,1.96,0,.71-.39,1.36-1,1.71.29.11.59.31.82.51h-2.47Zm-7.91,0H1.58L3.04,0h1.13v4.17h0Zm2.94,0L5.65,0h-1.13v4.17h2.59Zm1.58,4.52h-2.18l-.61-1.74h-1.39v-2.44h2.71l1.46,4.17h0Zm-8.7,0h2.18l.61-1.74h1.39v-2.44H1.46l-1.46,4.17h0Z"/>
</svg>