<?xml version="1.0" encoding="UTF-8"?>
<svg id="Livello_1" data-name="Livello 1" xmlns="http://www.w3.org/2000/svg" viewBox="0 0 21.98 22.02">
  <polyline points=".81 19.88 2.61 19.88 2.61 18.44 3.41 18.44 3.41 21.98 2.61 21.98 2.61 20.5 .81 20.5 .81 21.98 0 21.98 0 18.44 .81 18.44 .81 19.88"/>
  <path d="m4.87,20.56c0,.62.2.89.86.89s.86-.26.86-.89v-2.12h.81v2.14c0,.45-.06.76-.23.95-.31.35-.77.49-1.44.49s-1.13-.14-1.44-.49c-.18-.19-.22-.5-.22-.95v-2.14h.8v2.12"/>
  <path d="m9.01,20.51h1.14l-.58-1.36-.56,1.36m1.02-2.07l1.63,3.54h-.9l-.35-.84h-1.66l-.34.84h-.85l1.62-3.54h.85Z"/>
  <polyline points="12.03 18.44 12.91 21.16 13.66 18.44 14.61 18.44 15.47 21.16 16.29 18.44 17.12 18.44 15.93 21.98 14.95 21.98 14.13 19.34 13.42 21.98 12.44 21.98 11.16 18.44 12.03 18.44"/>
  <path d="m18.2,19.88h2.23v.62h-2.23c0,.64.28.87.91.87h1.32v.62h-1.36c-.46,0-.82-.03-1.19-.31-.39-.29-.59-.75-.59-1.39,0-1.25.57-1.83,1.8-1.83h1.34v.62h-1.32c-.58,0-.87.27-.9.82"/>
  <rect x="21.14" y="18.44" width=".84" height="3.54"/>
  <path d="m9.46,12.93s.04-.03.02-.08h0C6.9,7.2,3.36,2.92,3.36,2.92c0,0-1.92,1.82-1.78,3.65.07,1.38,1.11,2.2,1.11,2.2,1.68,1.64,5.73,3.7,6.68,4.17.01,0,.06.02.09-.02"/>
  <path d="m9.46,12.93s.04-.03.02-.08h0C6.9,7.2,3.36,2.92,3.36,2.92c0,0-1.92,1.82-1.78,3.65.07,1.38,1.11,2.2,1.11,2.2,1.68,1.64,5.73,3.7,6.68,4.17.01,0,.06.02.09-.02"/>
  <path d="m8.83,14.33c-.02-.06-.09-.06-.09-.06h0s-6.75.23-6.75.23c.73,1.31,1.97,2.32,3.25,2.01.89-.22,2.89-1.62,3.56-2.1h0c.05-.05.03-.09.03-.09"/>
  <path d="m8.83,14.33c-.02-.06-.09-.06-.09-.06h0s-6.75.23-6.75.23c.73,1.31,1.97,2.32,3.25,2.01.89-.22,2.89-1.62,3.56-2.1h0c.05-.05.03-.09.03-.09"/>
  <path d="m8.93,13.72c.03-.05-.02-.1-.02-.1h0C5.94,11.61.19,8.54.19,8.54c-.52,1.62.18,2.92.18,2.92.73,1.55,2.13,2.02,2.13,2.02.65.27,1.29.28,1.29.28.1.02,4.02,0,5.07,0,.04,0,.07-.05.07-.05"/>
  <path d="m8.93,13.72c.03-.05-.02-.1-.02-.1h0C5.94,11.61.19,8.54.19,8.54c-.52,1.62.18,2.92.18,2.92.73,1.55,2.13,2.02,2.13,2.02.65.27,1.29.28,1.29.28.1.02,4.02,0,5.07,0,.04,0,.07-.05.07-.05"/>
  <path d="m9.38,0c-.29.03-1.09.21-1.09.21-1.79.46-2.21,2.09-2.21,2.09-.33,1.02,0,2.15,0,2.15.6,2.65,3.53,7.01,4.17,7.92.04.05.08.03.08.03.07-.02.06-.08.06-.08.97-9.73-1.02-12.31-1.02-12.31"/>
  <path d="m9.38,0c-.29.03-1.09.21-1.09.21-1.79.46-2.21,2.09-2.21,2.09-.33,1.02,0,2.15,0,2.15.6,2.65,3.53,7.01,4.17,7.92.04.05.08.03.08.03.07-.02.06-.08.06-.08.97-9.73-1.02-12.31-1.02-12.31"/>
  <path d="m11.62,12.39c.06.03.1-.04.1-.04h0c.65-.94,3.56-5.27,4.16-7.91,0,0,.32-1.28,0-2.15,0,0-.44-1.65-2.23-2.09,0,0-.51-.13-1.06-.21,0,0-2,2.58-1.03,12.31h0c0,.06.05.07.05.07"/>
  <path d="m11.62,12.39c.06.03.1-.04.1-.04h0c.65-.94,3.56-5.27,4.16-7.91,0,0,.32-1.28,0-2.15,0,0-.44-1.65-2.23-2.09,0,0-.51-.13-1.06-.21,0,0-2,2.58-1.03,12.31h0c0,.06.05.07.05.07"/>
  <path d="m13.22,14.27s-.06,0-.08.05c0,0-.01.06.03.09h0c.65.47,2.61,1.84,3.55,2.1,0,0,1.75.59,3.26-2.01l-6.76-.24h0"/>
  <path d="m13.22,14.27s-.06,0-.08.05c0,0-.01.06.03.09h0c.65.47,2.61,1.84,3.55,2.1,0,0,1.75.59,3.26-2.01l-6.76-.24h0"/>
  <path d="m21.78,8.53s-5.74,3.08-8.71,5.09h0s-.05.04-.04.1c0,0,.03.05.07.05h0c1.06,0,5.09,0,5.19-.01,0,0,.52-.02,1.16-.27,0,0,1.43-.46,2.18-2.08,0,0,.66-1.33.15-2.88"/>
  <path d="m21.78,8.53s-5.74,3.08-8.71,5.09h0s-.05.04-.04.1c0,0,.03.05.07.05h0c1.06,0,5.09,0,5.19-.01,0,0,.52-.02,1.16-.27,0,0,1.43-.46,2.18-2.08,0,0,.66-1.33.15-2.88"/>
  <path d="m12.53,12.93s.05.03.09,0c.97-.48,4.99-2.53,6.66-4.16,0,0,1.05-.85,1.11-2.21.12-1.89-1.78-3.64-1.78-3.64,0,0-3.52,4.27-6.1,9.9h0s-.03.07.02.11"/>
  <path d="m12.53,12.93s.05.03.09,0c.97-.48,4.99-2.53,6.66-4.16,0,0,1.05-.85,1.11-2.21.12-1.89-1.78-3.64-1.78-3.64,0,0-3.52,4.27-6.1,9.9h0s-.03.07.02.11"/>
</svg>